<?xml version="1.0" encoding="UTF-8"?>
<svg width="21px" height="14px" viewBox="0 0 21 14" version="1.1" xmlns="http://www.w3.org/2000/svg" xmlns:xlink="http://www.w3.org/1999/xlink">
    <title>FE6F42C0-9F66-4361-BC62-A954056DE8B2</title>
    <g id="Page-1" stroke="none" stroke-width="1" fill="none" fill-rule="evenodd">
        <g id="ScnSoft-COM-info-commercial-page-v2-1440" transform="translate(-416.000000, -446.000000)" fill="#005EB8">
            <g id="ICP-Heading" transform="translate(0.000000, 133.000000)">
                <g id="Service" transform="translate(135.000000, 208.000000)">
                    <path d="M281,111.902985 C281,111.708955 281.1,111.514925 281.2,111.41791 C281.3,111.320896 281.5,111.223881 281.7,111.223881 L299.4,111.223881 L294.7,106.664179 C294.6,106.567164 294.5,106.373134 294.5,106.179104 C294.5,105.985075 294.6,105.791045 294.7,105.69403 C294.8,105.597015 295,105.5 295.2,105.5 C295.4,105.5 295.6,105.597015 295.7,105.69403 L301.7,111.514925 C301.8,111.61194 301.8,111.708955 301.9,111.708955 C301.9,111.80597 302,111.902985 302,112 C302,112.097015 302,112.19403 301.9,112.291045 C301.9,112.38806 301.8,112.485075 301.7,112.485075 L295.7,118.30597 C295.6,118.402985 295.4,118.5 295.2,118.5 C295,118.5 294.8,118.402985 294.7,118.30597 C294.6,118.208955 294.5,118.014925 294.5,117.820896 C294.5,117.626866 294.6,117.432836 294.7,117.335821 L299.4,112.776119 L281.7,112.776119 C281.5,112.776119 281.3,112.679104 281.2,112.58209 C281.1,112.291045 281,112.097015 281,111.902985 Z" id="Path"></path>
                </g>
            </g>
        </g>
    </g>
</svg>