<svg xmlns="http://www.w3.org/2000/svg" width="24" height="16" viewBox="0 0 24 16">
    <path fill="#8D8D8D" fill-rule="evenodd" d="M14.081 8.29l8.678 7.282c-.42.272-.925.428-1.478.428H2.906c-.717 0-1.393-.263-1.911-.698L9.349 8.29l2.366 1.985 2.366-1.985zM23.108.717c.554.517.892 1.269.892 2.097v10.418c0 .618-.188 1.186-.514 1.644l-8.628-7.239zm-22.42.305l7.884 6.615L.35 14.536c-.222-.388-.35-.831-.35-1.304V2.813c0-.676.262-1.302.688-1.79zM21.28 0c.33 0 .644.058.932.164L11.716 8.981 1.476.381C1.904.138 2.394 0 2.906 0z"/>
</svg>
