<svg xmlns="http://www.w3.org/2000/svg" width="24" height="21" viewBox="0 0 24 21">
    <path fill="#8D8D8D" d="M21.246.04H2.902C1.353.04 0 1.322 0 2.87v10.483c0 1.549 1.353 2.785 2.902 2.785H14.18l4.688 4.7c.035.035.083.06.132.06.024 0 .002-.002.025-.012.07-.029.069-.094.069-.17V16.14h2.152c1.549 0 2.715-1.237 2.715-2.785V2.87c0-1.549-1.166-2.831-2.715-2.831zM6.08 9.988c-1.138 0-2.063-.925-2.063-2.063 0-1.138.925-2.063 2.063-2.063 1.138 0 2.063.925 2.063 2.063 0 1.138-.925 2.063-2.063 2.063zm5.99 0c-1.137 0-2.063-.925-2.063-2.063 0-1.138.926-2.063 2.063-2.063 1.138 0 2.063.925 2.063 2.063 0 1.138-.925 2.063-2.063 2.063zm5.968 0c-1.138 0-2.063-.925-2.063-2.063 0-1.138.925-2.063 2.063-2.063 1.137 0 2.063.925 2.063 2.063 0 1.138-.926 2.063-2.063 2.063z"/>
</svg>
