<svg xmlns="http://www.w3.org/2000/svg" width="24" height="16" viewBox="0 0 24 16">
    <g fill="#FFF" transform="translate(0 -3)">
        <circle cx="4.138" cy="9.31" r="2.483"/>
        <circle cx="12" cy="6.5" r="3.5"/>
        <path d="M4.138 12.62c.773 0 1.518.223 2.158.62C5.48 14.496 5 16.033 5 17.691V18H0v-1.241c0-2.282 1.856-4.138 4.138-4.138zm15.724 0c2.282 0 4.138 1.857 4.138 4.139V18h-5v-.308c0-1.658-.48-3.195-1.295-4.452.64-.397 1.384-.62 2.157-.62z"/>
        <circle cx="19.862" cy="9.31" r="2.483"/>
        <path d="M12 11c-3.308 0-6 2.76-6 6.154V19h12v-1.846C18 13.76 15.308 11 12 11z"/>
    </g>
</svg>
