<svg xmlns="http://www.w3.org/2000/svg" width="18" height="18" viewBox="0 0 18 18">
    <path fill="#8D8D8D" d="M17.59 15.973c-.246.538-.8 1.007-1.66 1.405-.86.398-1.624.597-2.292.597-.187 0-.386-.014-.597-.043-.21-.03-.389-.059-.535-.088-.146-.03-.34-.082-.58-.158-.24-.076-.412-.135-.517-.176l-.58-.22c-.28-.105-.457-.17-.526-.192-1.92-.703-3.796-1.97-5.628-3.802-1.832-1.832-3.1-3.708-3.802-5.628-.023-.07-.088-.246-.193-.526C.575 6.86.5 6.668.46 6.562c-.04-.105-.1-.278-.175-.518-.076-.24-.129-.433-.158-.58C.097 5.32.068 5.14.039 4.93c-.03-.211-.044-.41-.044-.598 0-.667.2-1.43.597-2.291C.99 1.18 1.46.627 1.997.38c.62-.257 1.212-.386 1.774-.386.128 0 .222.012.28.035.06.024.156.13.29.316.135.188.281.425.44.712.157.286.313.565.465.834.152.269.298.535.439.799.14.263.228.43.263.5.035.059.111.17.228.334s.205.31.264.439c.058.128.088.251.088.368 0 .176-.12.39-.36.641-.24.252-.504.483-.79.694-.288.21-.55.436-.79.676-.24.24-.36.436-.36.588 0 .082.02.179.06.29.042.111.08.202.115.272s.09.17.167.299c.076.129.126.21.149.246.644 1.159 1.384 2.157 2.22 2.994.838.837 1.836 1.577 2.995 2.221.035.024.117.074.246.15.129.075.229.131.299.166.07.035.16.073.272.114.111.041.208.062.29.062.187 0 .445-.193.773-.58.327-.386.661-.77 1-1.15.34-.38.615-.57.826-.57.117 0 .24.029.369.087.129.059.275.147.439.264.164.117.275.193.333.228l.93.51c.621.327 1.14.617 1.555.868.416.252.64.425.676.518.023.059.035.153.035.281 0 .562-.13 1.153-.387 1.772z"/>
</svg>
