<svg xmlns="http://www.w3.org/2000/svg" width="44" height="44" viewBox="0 0 44 44">
    <g fill="#005EB8">
        <circle cx="22" cy="32.527" r="2.148"/>
        <path d="M22 0C9.841 0 0 9.84 0 22c0 12.159 9.84 22 22 22 12.159 0 22-9.84 22-22C44 9.841 34.16 0 22 0zm0 40.563C11.741 40.563 3.437 32.26 3.437 22 3.438 11.741 11.74 3.437 22 3.437c10.259 0 18.563 8.303 18.563 18.563 0 10.259-8.303 18.563-18.563 18.563z"/>
        <path d="M22 11.043c-3.79 0-6.875 3.084-6.875 6.875 0 .95.77 1.719 1.719 1.719.949 0 1.718-.77 1.718-1.719 0-1.895 1.543-3.438 3.438-3.438 1.895 0 3.438 1.543 3.438 3.438 0 1.895-1.543 3.437-3.438 3.437-.95 0-1.719.77-1.719 1.72v4.296c0 .95.77 1.719 1.719 1.719.95 0 1.719-.77 1.719-1.719v-2.796c2.962-.765 5.156-3.46 5.156-6.657 0-3.79-3.084-6.875-6.875-6.875z"/>
    </g>
</svg>
