<svg xmlns="http://www.w3.org/2000/svg" width="18" height="18" viewBox="0 0 18 18">
    <path fill="#03A9F4" d="M17.448 10.924c1.3-5.846-3.82-11.157-9.835-10.137C4.348-1.24 0 1.05 0 4.935c0 .904.25 1.75.683 2.478-1.21 5.86 3.954 11.095 9.963 10.005.701.37 1.5.582 2.35.582 3.705 0 6.077-3.842 4.452-7.076zm-8.394 3.991c-1.753 0-3.465-.423-4.479-1.87-1.51-2.137.481-3.206 1.459-2.391.816.688.56 2.352 2.956 2.352 1.056 0 2.36-.45 2.36-1.498 0-2.107-4.675-1.11-6.533-3.407-.683-.842-.812-2.326.027-3.403 1.46-1.88 5.749-1.994 7.592-.574 1.702 1.317 1.243 3.066-.13 3.066-1.653 0-.785-2.162-3.452-2.162-1.933 0-2.694 1.375-1.332 2.044 1.812.9 6.55.62 6.55 4.194-.006 2.513-2.43 3.65-5.018 3.65z"/>
</svg>
